<?xml version="1.0" encoding="utf-8"?>
<!-- Generator: Adobe Illustrator 26.0.3, SVG Export Plug-In . SVG Version: 6.00 Build 0)  -->
<svg version="1.1" id="Calque_1" xmlns="http://www.w3.org/2000/svg" xmlns:xlink="http://www.w3.org/1999/xlink" x="0px" y="0px"
	 viewBox="0 0 130 130" style="enable-background:new 0 0 130 130;" xml:space="preserve">
<g>
	<path fill="currentColor" d="M65.1,3c18,0.2,33.4,6.8,45.6,20.1C122,35,127.8,51,127,67.4c-0.4,16.3-7.4,31.7-19.4,42.7c-11.8,11.5-27.9,17.5-44.3,16.8
		c-16.5-0.2-32.2-7.3-43.3-19.4C8.2,95.5,2.1,79.2,3,62.5C3.5,46,10.7,30.3,23,19.3C34.5,8.7,49.5,2.9,65.1,3z M86.6,47.8
		c-3.1-1.6-6.5-2.5-10-2.7c-3.7-0.2-7.5,0-11.1,0.7c-8.3,1.5-16.1,5-22.6,10.2C33.9,63.4,30.4,73,32.4,84.2
		c1.7,9.8,7.7,16.5,17,20.1c6.4,2.5,13,2.7,19.7,2.2c4.7-0.4,9.3-1.3,13.9-2.6c1.3-0.4,2.7-0.8,4-1.2c-0.9-2.8-1.7-5.5-2.6-8.3
		c-5.5,1.8-11.1,2.9-16.9,3.5c-4.6,0.5-9.3,0.1-13.7-1.2c-5.2-1.4-9.5-5.1-11.6-10.1c-0.5-1.2-0.9-2.5-1.3-3.7c0.4,0,0.7,0.1,1,0.3
		c3.1,1.4,6.5,2.2,9.9,2.3c3.9,0.2,7.9-0.2,11.7-1.1c8.4-1.9,16.2-5.3,22.6-11.2c8-7.3,10.9-16.6,9-27.1c-1.8-9.8-7.7-16.4-17-20
		c-7.1-2.7-14.4-2.8-21.8-1.9c-4.8,0.6-9.5,1.6-14.2,3.1c-0.5,0.2-1.1,0.3-1.6,0.5l2.5,8.1c0.3-0.1,0.5-0.1,0.7-0.2
		c4.6-1.4,9.3-2.4,14-3.1c4.5-0.6,9.1-0.5,13.5,0.4c4.5,0.8,8.6,3.2,11.6,6.7C84.8,42.1,86,44.9,86.6,47.8z" />
	<path fill="currentColor" d="M53.8,77c-2.7,0-5.3-0.5-7.8-1.4c-0.8-0.3-1.5-0.7-2.1-1.2c-1.4-0.9-1.9-2.7-1.3-4.3c0.8-2.3,2.2-4.3,4-5.8
		c5.7-5.1,12.8-8.6,20.3-9.9c3-0.7,6.1-0.9,9.2-0.6c2.5,0.1,4.8,0.8,6.9,2.1c1.9,1,2.6,3.3,1.6,5.2c0,0.1-0.1,0.2-0.1,0.2
		c-1.2,2.4-2.8,4.5-4.9,6.1c-5.7,4.7-12.5,7.7-19.8,9C57.9,76.7,55.8,76.8,53.8,77z" />
</g>
</svg>
